<svg xmlns="http://www.w3.org/2000/svg">
    <symbol id="plus"
            fill="none"
            viewBox="0 0 24 24"
            stroke="currentColor">
        <path stroke-linecap="round" stroke-linejoin="round" stroke-width="2" d="M12 6v6m0 0v6m0-6h6m-6 0H6"></path>
    </symbol>
    <symbol id="close"
            viewBox="0 0 24 24"
            stroke-width="2"
            stroke="currentColor"
            fill="none"
            stroke-linecap="round"
            stroke-linejoin="round">
        <path stroke="none" d="M0 0h24v24H0z" fill="none"></path>
        <path d="M18 6l-12 12"></path>
        <path d="M6 6l12 12"></path>
    </symbol>
    <symbol id="menu"
            viewBox="0 0 24 24"
            fill="none"
            stroke="currentColor"
            stroke-width="2"
            stroke-linecap="round"
            stroke-linejoin="round">
        <path stroke="none" d="M0 0h24v24H0z" fill="none"/>
        <path d="M4 6l16 0"/>
        <path d="M4 12l16 0"/>
        <path d="M4 18l16 0"/>
    </symbol>
    <symbol id="preferences" viewBox="0 0 24 24"
            stroke-width="2"
            stroke="currentColor"
            fill="none"
            stroke-linecap="round"
            stroke-linejoin="round">
        <path stroke="none" d="M0 0h24v24H0z" fill="none"></path>
        <path d="M4 10a2 2 0 1 0 4 0a2 2 0 0 0 -4 0"></path>
        <path d="M6 4v4"></path>
        <path d="M6 12v8"></path>
        <path d="M10 16a2 2 0 1 0 4 0a2 2 0 0 0 -4 0"></path>
        <path d="M12 4v10"></path>
        <path d="M12 18v2"></path>
        <path d="M16 7a2 2 0 1 0 4 0a2 2 0 0 0 -4 0"></path>
        <path d="M18 4v1"></path>
        <path d="M18 9v11"></path>
    </symbol>
    <symbol id="sort"
            viewBox="0 0 24 24"
            fill="none"
            stroke="currentColor"
            stroke-width="2"
            stroke-linecap="round"
            stroke-linejoin="round">
        <path stroke="none" d="M0 0h24v24H0z" fill="none"/>
        <path d="M3 9l4 -4l4 4m-4 -4v14"/>
        <path d="M21 15l-4 4l-4 -4m4 4v-14"/>
    </symbol>
    <symbol id="bulk-edit"
            viewBox="0 0 24 24"
            fill="none"
            stroke="currentColor"
            stroke-width="2"
            stroke-linecap="round"
            stroke-linejoin="round">
        <path stroke="none" d="M0 0h24v24H0z" fill="none"/>
        <path d="M7 7h-1a2 2 0 0 0 -2 2v9a2 2 0 0 0 2 2h9a2 2 0 0 0 2 -2v-1"/>
        <path d="M20.385 6.585a2.1 2.1 0 0 0 -2.97 -2.97l-8.415 8.385v3h3l8.385 -8.415z"/>
        <path d="M16 5l3 3"/>
    </symbol>
    <symbol id="unread" viewBox="0 0 24 24" stroke-width="2" stroke="currentColor" fill="none" stroke-linecap="round"
            stroke-linejoin="round">
        <path stroke="none" d="M0 0h24v24H0z" fill="none"></path>
        <path d="M3 19a9 9 0 0 1 9 0a9 9 0 0 1 9 0"></path>
        <path d="M3 6a9 9 0 0 1 9 0a9 9 0 0 1 9 0"></path>
        <path d="M3 6l0 13"></path>
        <path d="M12 6l0 13"></path>
        <path d="M21 6l0 13"></path>
    </symbol>
    <symbol id="share" viewBox="0 0 24 24" stroke-width="2" stroke="currentColor" fill="none" stroke-linecap="round"
            stroke-linejoin="round">
        <path stroke="none" d="M0 0h24v24H0z" fill="none"></path>
        <path d="M6 12m-3 0a3 3 0 1 0 6 0a3 3 0 1 0 -6 0"></path>
        <path d="M18 6m-3 0a3 3 0 1 0 6 0a3 3 0 1 0 -6 0"></path>
        <path d="M18 18m-3 0a3 3 0 1 0 6 0a3 3 0 1 0 -6 0"></path>
        <path d="M8.7 10.7l6.6 -3.4"></path>
        <path d="M8.7 13.3l6.6 3.4"></path>
    </symbol>
    <symbol id="note" viewBox="0 0 24 24" stroke-width="2" stroke="currentColor" fill="none" stroke-linecap="round"
            stroke-linejoin="round">
        <path stroke="none" d="M0 0h24v24H0z" fill="none"></path>
        <path d="M5 3m0 2a2 2 0 0 1 2 -2h10a2 2 0 0 1 2 2v14a2 2 0 0 1 -2 2h-10a2 2 0 0 1 -2 -2z"></path>
        <path d="M9 7l6 0"></path>
        <path d="M9 11l6 0"></path>
        <path d="M9 15l4 0"></path>
    </symbol>
    <symbol id="drag"
            viewBox="0 0 24 24"
            fill="none"
            stroke="currentColor"
            stroke-width="2"
            stroke-linecap="round"
            stroke-linejoin="round">
        <path stroke="none" d="M0 0h24v24H0z" fill="none"/>
        <path d="M9 5m-1 0a1 1 0 1 0 2 0a1 1 0 1 0 -2 0"/>
        <path d="M9 12m-1 0a1 1 0 1 0 2 0a1 1 0 1 0 -2 0"/>
        <path d="M9 19m-1 0a1 1 0 1 0 2 0a1 1 0 1 0 -2 0"/>
        <path d="M15 5m-1 0a1 1 0 1 0 2 0a1 1 0 1 0 -2 0"/>
        <path d="M15 12m-1 0a1 1 0 1 0 2 0a1 1 0 1 0 -2 0"/>
        <path d="M15 19m-1 0a1 1 0 1 0 2 0a1 1 0 1 0 -2 0"/>
    </symbol>
</svg>
