<svg height="700pt" preserveAspectRatio="xMidYMid meet" viewBox="0 0 700 700" width="700pt" xmlns="http://www.w3.org/2000/svg"><path d="m3210 6573c-780-79-1463-417-1985-983-444-481-716-1082-791-1750-18-160-18-490 0-650 80-713 380-1341 880-1842 492-494 1125-801 1822-883 150-18 512-21 654-5 407 44 737 142 1094 323 775 394 1350 1108 1571 1952 71 271 98 487 98 785-1 311-35 562-117 847-54 188-99 302-201 508-216 439-510 795-900 1090-441 335-992 550-1544 605-95 9-499 12-581 3zm-639-2228c-543-544-1003-1011-1020-1038-91-134-135-274-134-422 1-167 61-314 200-485 135-165 308-291 467-338 110-32 264-27 376 12 185 65 130 15 1233 1115l1007 1006 150-150c83-82 150-154 150-160s-442-452-982-992c-658-656-1010-1000-1064-1040-304-223-643-298-965-214-271 72-548 272-751 543-115 153-179 283-226 457-22 85-26 115-25 256 0 140 3 172 26 257 34 130 95 266 169 380 54 83 172 205 1067 1101l1006 1007 152-152 153-153zm2359 1051c242-44 461-167 675-381 282-281 415-567 415-890 0-119-17-230-51-336-32-101-123-277-188-363-54-71-2003-2046-2020-2046-11 0-301 281-301 292 0 6 435 449 967 985 533 536 986 998 1007 1027 53 70 121 216 140 303 30 136 14 277-48 416-65 147-245 351-396 449-211 137-403 161-617 79-162-63-173-73-1009-913-428-431-871-876-984-991-112-114-207-207-211-207s-75 67-160 148l-153 149 785 789c431 434 865 872 964 973 266 271 397 369 612 455 176 70 396 94 573 62z" transform="matrix(.1 0 0 -.1 0 700)"/></svg>