<?xml version="1.0" encoding="UTF-8" standalone="no"?>
<!DOCTYPE svg PUBLIC "-//W3C//DTD SVG 1.1//EN" "http://www.w3.org/Graphics/SVG/1.1/DTD/svg11.dtd">
<svg width="100%" height="100%" viewBox="0 0 2599 591" version="1.1" xmlns="http://www.w3.org/2000/svg" xmlns:xlink="http://www.w3.org/1999/xlink" xml:space="preserve" xmlns:serif="http://www.serif.com/" style="fill-rule:evenodd;clip-rule:evenodd;stroke-linejoin:round;stroke-miterlimit:1.5;">
    <g transform="matrix(1.18075,0,0,1.18075,-1265.31,-1395.82)">
        <circle cx="1314.98" cy="1424.52" r="190.496" style="fill:rgb(88,86,224);"/>
    </g>
    <g transform="matrix(1,0,0,1,-1017.49,-1140.55)">
        <g transform="matrix(0.707351,0.706862,-0.706862,0.707351,1331.93,-512.804)">
            <path d="M1244.39,1293.95L1244.39,1493.59C1244.39,1493.59 1243.58,1561.48 1319.29,1562.47C1395.27,1563.46 1394.17,1493.59 1394.17,1493.59L1394.17,1293.95" style="fill:none;stroke:white;stroke-width:31.25px;"/>
        </g>
        <g transform="matrix(-0.710067,-0.704134,0.704134,-0.710067,1284.12,3366.41)">
            <path d="M1244.39,1293.95L1244.39,1493.59C1244.39,1493.59 1243.58,1561.48 1319.29,1562.47C1395.27,1563.46 1394.17,1493.59 1394.17,1493.59L1394.17,1293.95" style="fill:none;stroke:white;stroke-width:31.25px;"/>
        </g>
    </g>
    <g transform="matrix(8.26174,0,0,8.26174,-5762.21,-2037.46)">
        <g transform="matrix(50,0,0,50,770.835,299.13)">
            <path d="M0.078,-0.714L0.078,-0L0.551,-0L0.551,-0.08L0.173,-0.08L0.173,-0.714L0.078,-0.714Z" style="fill:rgb(132,132,228);fill-rule:nonzero;"/>
        </g>
        <g transform="matrix(50,0,0,50,798.635,299.13)">
            <rect x="0.082" y="-0.714" width="0.095" height="0.714" style="fill:rgb(132,132,228);fill-rule:nonzero;"/>
        </g>
        <g transform="matrix(50,0,0,50,811.585,299.13)">
            <path d="M0.077,-0.714L0.077,-0L0.167,-0L0.167,-0.573L0.169,-0.573L0.542,-0L0.646,-0L0.646,-0.714L0.556,-0.714L0.556,-0.135L0.554,-0.135L0.178,-0.714L0.077,-0.714Z" style="fill:rgb(132,132,228);fill-rule:nonzero;"/>
        </g>
        <g transform="matrix(50,0,0,50,847.685,299.13)">
            <path d="M0.078,-0.714L0.078,-0L0.173,-0L0.173,-0.25L0.292,-0.361L0.55,-0L0.67,-0L0.357,-0.426L0.658,-0.714L0.535,-0.714L0.173,-0.358L0.173,-0.714L0.078,-0.714Z" style="fill:rgb(132,132,228);fill-rule:nonzero;"/>
        </g>
        <g transform="matrix(50,0,0,50,881.035,299.13)">
            <path d="M0.173,-0.08L0.173,-0.634L0.333,-0.634C0.377,-0.634 0.414,-0.628 0.444,-0.616C0.474,-0.603 0.498,-0.585 0.518,-0.562C0.537,-0.538 0.55,-0.509 0.559,-0.476C0.567,-0.442 0.571,-0.404 0.571,-0.361C0.571,-0.317 0.567,-0.28 0.558,-0.249C0.549,-0.218 0.537,-0.192 0.523,-0.171C0.509,-0.15 0.493,-0.134 0.476,-0.122C0.458,-0.11 0.44,-0.101 0.422,-0.095C0.404,-0.088 0.387,-0.084 0.371,-0.083C0.355,-0.081 0.342,-0.08 0.331,-0.08L0.173,-0.08ZM0.078,-0.714L0.078,-0L0.323,-0C0.382,-0 0.434,-0.008 0.477,-0.025C0.52,-0.042 0.556,-0.066 0.584,-0.098C0.612,-0.129 0.633,-0.168 0.646,-0.215C0.659,-0.261 0.666,-0.314 0.666,-0.374C0.666,-0.489 0.636,-0.574 0.577,-0.63C0.518,-0.686 0.433,-0.714 0.323,-0.714L0.078,-0.714Z" style="fill:rgb(132,132,228);fill-rule:nonzero;"/>
        </g>
        <g transform="matrix(50,0,0,50,916.235,299.13)">
            <rect x="0.082" y="-0.714" width="0.095" height="0.714" style="fill:rgb(132,132,228);fill-rule:nonzero;"/>
        </g>
        <g transform="matrix(50,0,0,50,929.185,299.13)">
            <path d="M0.077,-0.714L0.077,-0L0.167,-0L0.167,-0.573L0.169,-0.573L0.542,-0L0.646,-0L0.646,-0.714L0.556,-0.714L0.556,-0.135L0.554,-0.135L0.178,-0.714L0.077,-0.714Z" style="fill:rgb(132,132,228);fill-rule:nonzero;"/>
        </g>
        <g transform="matrix(50,0,0,50,965.285,299.13)">
            <path d="M0.612,-0.089L0.637,-0L0.697,-0L0.697,-0.376L0.384,-0.376L0.384,-0.296L0.612,-0.296C0.613,-0.263 0.609,-0.233 0.599,-0.205C0.589,-0.176 0.574,-0.152 0.555,-0.131C0.535,-0.11 0.511,-0.093 0.482,-0.081C0.453,-0.069 0.42,-0.063 0.383,-0.063C0.343,-0.063 0.308,-0.071 0.278,-0.087C0.247,-0.102 0.222,-0.123 0.201,-0.15C0.18,-0.176 0.165,-0.206 0.154,-0.241C0.143,-0.275 0.138,-0.311 0.138,-0.348C0.138,-0.386 0.143,-0.423 0.152,-0.46C0.161,-0.496 0.176,-0.528 0.196,-0.557C0.215,-0.585 0.241,-0.608 0.272,-0.625C0.303,-0.642 0.34,-0.651 0.383,-0.651C0.41,-0.651 0.435,-0.648 0.459,-0.642C0.482,-0.635 0.503,-0.626 0.522,-0.613C0.541,-0.6 0.556,-0.584 0.569,-0.565C0.582,-0.545 0.59,-0.521 0.595,-0.494L0.69,-0.494C0.683,-0.536 0.671,-0.572 0.653,-0.602C0.634,-0.631 0.612,-0.656 0.585,-0.675C0.558,-0.694 0.527,-0.708 0.493,-0.718C0.458,-0.727 0.422,-0.731 0.383,-0.731C0.326,-0.731 0.277,-0.721 0.235,-0.7C0.192,-0.679 0.157,-0.65 0.129,-0.615C0.1,-0.58 0.079,-0.539 0.065,-0.492C0.05,-0.444 0.043,-0.395 0.043,-0.343C0.043,-0.296 0.051,-0.251 0.066,-0.208C0.081,-0.165 0.104,-0.126 0.133,-0.093C0.162,-0.06 0.198,-0.033 0.24,-0.014C0.282,0.006 0.33,0.016 0.383,0.016C0.425,0.016 0.467,0.008 0.508,-0.009C0.549,-0.025 0.584,-0.052 0.612,-0.089Z" style="fill:rgb(132,132,228);fill-rule:nonzero;"/>
        </g>
    </g>
</svg>
